<svg width="20" height="14" viewBox="0 0 20 14" fill="none" xmlns="http://www.w3.org/2000/svg">
<path d="M19.8675 6.44601C17.6931 2.15798 14.4062 0 9.99999 0C5.59148 0 2.30689 2.15798 0.132451 6.44816C0.0452335 6.62105 0 6.80987 0 7.00107C0 7.19227 0.0452335 7.3811 0.132451 7.55399C2.30689 11.842 5.59378 14 9.99999 14C14.4085 14 17.6931 11.842 19.8675 7.55184C20.0442 7.20399 20.0442 6.80031 19.8675 6.44601ZM9.99999 12.454C6.30024 12.454 3.59137 10.6975 1.68071 7C3.59137 3.30245 6.30024 1.54601 9.99999 1.54601C13.6997 1.54601 16.4086 3.30245 18.3193 7C16.4109 10.6975 13.702 12.454 9.99999 12.454ZM9.90825 3.22086C7.67876 3.22086 5.87132 4.91288 5.87132 7C5.87132 9.08712 7.67876 10.7791 9.90825 10.7791C12.1377 10.7791 13.9452 9.08712 13.9452 7C13.9452 4.91288 12.1377 3.22086 9.90825 3.22086ZM9.90825 9.40491C8.48844 9.40491 7.33929 8.32914 7.33929 7C7.33929 5.67086 8.48844 4.59509 9.90825 4.59509C11.3281 4.59509 12.4772 5.67086 12.4772 7C12.4772 8.32914 11.3281 9.40491 9.90825 9.40491Z" fill="#777777"/>
</svg>
