<svg width="47" height="42" viewBox="0 0 47 42" fill="none" xmlns="http://www.w3.org/2000/svg">
<path d="M45.2783 8.51859C44.5584 6.8516 43.5203 5.34099 42.2222 4.07133C40.9231 2.79787 39.3914 1.78588 37.7104 1.09037C35.9674 0.366309 34.0979 -0.00430647 32.2105 3.77527e-05C29.5625 3.77527e-05 26.979 0.725135 24.7339 2.09476C24.1968 2.4224 23.6865 2.78226 23.2031 3.17435C22.7197 2.78226 22.2095 2.4224 21.6724 2.09476C19.4272 0.725135 16.8437 3.77527e-05 14.1958 3.77527e-05C12.2891 3.77527e-05 10.4414 0.365272 8.6958 1.09037C7.00928 1.78861 5.48926 2.79301 4.18408 4.07133C2.88426 5.33956 1.84593 6.85053 1.12793 8.51859C0.381348 10.2535 0 12.0957 0 13.9917C0 15.7803 0.365235 17.6441 1.09033 19.5401C1.69727 21.1245 2.56738 22.7681 3.6792 24.4278C5.44092 27.0542 7.86328 29.7935 10.8711 32.5704C15.8555 37.1734 20.7915 40.3531 21.001 40.482L22.2739 41.2984C22.8379 41.6582 23.563 41.6582 24.127 41.2984L25.3999 40.482C25.6094 40.3477 30.54 37.1734 35.5298 32.5704C38.5376 29.7935 40.96 27.0542 42.7217 24.4278C43.8335 22.7681 44.709 21.1245 45.3105 19.5401C46.0356 17.6441 46.4009 15.7803 46.4009 13.9917C46.4063 12.0957 46.0249 10.2535 45.2783 8.51859Z" fill="#C4C4C4"/>
</svg>
