<svg width="48" height="48" viewBox="0 0 48 48" fill="none" xmlns="http://www.w3.org/2000/svg">
<path d="M18.625 35.9444L16.8333 43.1111L14.4444 45.5H33.5556L31.1667 43.1111L29.375 35.9444M2.5 26.3889H45.5M7.27778 35.9444H40.7222C41.9894 35.9444 43.2046 35.4411 44.1006 34.5451C44.9966 33.6491 45.5 32.4338 45.5 31.1667V7.27778C45.5 6.01063 44.9966 4.79539 44.1006 3.89938C43.2046 3.00337 41.9894 2.5 40.7222 2.5H7.27778C6.01063 2.5 4.79539 3.00337 3.89938 3.89938C3.00337 4.79539 2.5 6.01063 2.5 7.27778V31.1667C2.5 32.4338 3.00337 33.6491 3.89938 34.5451C4.79539 35.4411 6.01063 35.9444 7.27778 35.9444Z" stroke="black" stroke-width="5" stroke-linecap="round" stroke-linejoin="round"/>
</svg>
