<svg width="20" height="20" viewBox="0 0 20 20" fill="none" xmlns="http://www.w3.org/2000/svg">
<path d="M16.6543 0H6.18555C6.09961 0 6.0293 0.0703125 6.0293 0.15625V1.25C6.0293 1.33594 6.09961 1.40625 6.18555 1.40625H15.873V14.8438C15.873 14.9297 15.9434 15 16.0293 15H17.123C17.209 15 17.2793 14.9297 17.2793 14.8438V0.625C17.2793 0.279297 17 0 16.6543 0ZM14.1543 2.5H4.1543C3.80859 2.5 3.5293 2.7793 3.5293 3.125V13.4902C3.5293 13.6562 3.5957 13.8145 3.71289 13.9316L7.09766 17.3164C7.14063 17.3594 7.18945 17.3945 7.24219 17.4238V17.4609H7.32422C7.39258 17.4863 7.46484 17.5 7.53906 17.5H14.1543C14.5 17.5 14.7793 17.2207 14.7793 16.875V3.125C14.7793 2.7793 14.5 2.5 14.1543 2.5ZM7.24023 15.4727L5.55859 13.7891H7.24023V15.4727ZM13.373 16.0938H8.49023V13.3203C8.49023 12.8887 8.14062 12.5391 7.70898 12.5391H4.93555V3.90625H13.373V16.0938Z" fill="black"/>
</svg>
