<svg width="30" height="30" viewBox="0 0 30 30" fill="none" xmlns="http://www.w3.org/2000/svg">
<path d="M12.8294 25.6575C15.6759 25.6569 18.4404 24.704 20.6826 22.9506L27.7324 30L30 27.7325L22.9502 20.6831C24.7047 18.4408 25.6582 15.6758 25.6588 12.8287C25.6588 5.75529 19.9032 0 12.8294 0C5.7556 0 0 5.75529 0 12.8287C0 19.9022 5.7556 25.6575 12.8294 25.6575ZM12.8294 3.20718C18.136 3.20718 22.4515 7.52245 22.4515 12.8287C22.4515 18.135 18.136 22.4503 12.8294 22.4503C7.52285 22.4503 3.20736 18.135 3.20736 12.8287C3.20736 7.52245 7.52285 3.20718 12.8294 3.20718Z" fill="black"/>
</svg>
