<svg width="45" height="45" viewBox="0 0 45 45" fill="none" xmlns="http://www.w3.org/2000/svg">
<path d="M37.9688 10.547H27.5977L32.4352 5.70947C32.8314 5.3132 33.0541 4.77574 33.0541 4.21533C33.0541 3.65492 32.8314 3.11746 32.4352 2.72119C32.0389 2.32492 31.5014 2.10229 30.941 2.10229C30.3806 2.10229 29.8431 2.32492 29.4469 2.72119L22.5 9.66806L15.5549 2.72646C15.1586 2.33019 14.6212 2.10757 14.0607 2.10757C13.5003 2.10757 12.9629 2.33019 12.5666 2.72646C12.1703 3.12273 11.9477 3.66019 11.9477 4.2206C11.9477 4.78101 12.1703 5.31847 12.5666 5.71474L17.4023 10.547H7.03125C6.09885 10.547 5.20464 10.9174 4.54533 11.5767C3.88602 12.236 3.51563 13.1302 3.51562 14.0626V35.1563C3.51562 36.0887 3.88602 36.983 4.54533 37.6423C5.20464 38.3016 6.09885 38.672 7.03125 38.672H37.9688C38.9012 38.672 39.7954 38.3016 40.4547 37.6423C41.114 36.983 41.4844 36.0887 41.4844 35.1563V14.0626C41.4844 13.1302 41.114 12.236 40.4547 11.5767C39.7954 10.9174 38.9012 10.547 37.9688 10.547ZM37.2656 34.4532H7.73438V14.7657H37.2656V34.4532Z" fill="black"/>
</svg>
