<?xml version="1.0" standalone="no"?>
<!DOCTYPE svg PUBLIC "-//W3C//DTD SVG 20010904//EN"
 "http://www.w3.org/TR/2001/REC-SVG-20010904/DTD/svg10.dtd">
<svg version="1.0" xmlns="http://www.w3.org/2000/svg"
 width="512.000000pt" height="512.000000pt" viewBox="4000 6000 2500 2000"
 preserveAspectRatio="xMidYMid meet">
<!-- 말풍선 부분만 추출 (첫 번째 path가 말풍선 형태) -->
<g transform="translate(0.000000,1024.000000) scale(0.100000,-0.100000)"
fill="#000000" stroke="none">
<path d="M6017 7399 c-316 -43 -574 -281 -657 -603 -25 -100 -27 -280 -4 -375
16 -66 78 -209 106 -245 14 -17 13 -31 -8 -125 -29 -133 -30 -175 -4 -201 36
-36 66 -36 187 4 l114 38 72 -30 c119 -50 191 -64 312 -64 139 1 234 24 375
93 95 47 115 62 211 158 91 92 111 118 151 201 58 118 77 188 85 310 19 319
-172 639 -460 770 -140 63 -328 90 -480 69z m304 -293 c173 -59 300 -203 344
-388 20 -85 19 -150 -5 -242 -39 -155 -136 -274 -282 -345 -213 -105 -443 -68
-609 98 -242 242 -197 632 94 822 135 88 302 108 458 55z"/>
</g>
</svg>
