<?xml version="1.0" standalone="no"?>
<!DOCTYPE svg PUBLIC "-//W3C//DTD SVG 20010904//EN"
 "http://www.w3.org/TR/2001/REC-SVG-20010904/DTD/svg10.dtd">
<svg version="1.0" xmlns="http://www.w3.org/2000/svg"
 width="1024.000000pt" height="1024.000000pt" viewBox="0 0 1024.000000 1024.000000"
 preserveAspectRatio="xMidYMid meet">

<g transform="translate(0.000000,1024.000000) scale(0.100000,-0.100000)"
fill="#000000" stroke="none">
<path d="M6017 7399 c-316 -43 -574 -281 -657 -603 -25 -100 -27 -280 -4 -375
16 -66 78 -209 106 -245 14 -17 13 -31 -8 -125 -29 -133 -30 -175 -4 -201 36
-36 66 -36 187 4 l114 38 72 -30 c119 -50 191 -64 312 -64 139 1 234 24 375
93 95 47 115 62 211 158 91 92 111 118 151 201 58 118 77 188 85 310 19 319
-172 639 -460 770 -140 63 -328 90 -480 69z m304 -293 c173 -59 300 -203 344
-388 20 -85 19 -150 -5 -242 -39 -155 -136 -274 -282 -345 -213 -105 -443 -68
-609 98 -242 242 -197 632 94 822 135 88 302 108 458 55z"/>
<path d="M8129 5525 c-189 -38 -368 -159 -472 -321 -84 -131 -117 -247 -117
-411 0 -293 153 -550 396 -669 115 -55 210 -76 354 -78 241 -2 421 67 573 220
85 86 81 107 -36 192 -138 100 -141 100 -223 36 -152 -118 -308 -150 -461 -92
-97 36 -189 144 -209 248 l-6 30 509 0 510 0 27 26 c23 24 26 34 26 98 -1 297
-178 579 -429 681 -128 52 -302 68 -442 40z m254 -325 c83 -26 164 -96 202
-175 14 -30 25 -59 25 -64 0 -8 -105 -11 -335 -11 -224 0 -335 3 -335 10 0 22
52 112 86 150 91 100 219 132 357 90z"/>
<path d="M1660 5515 c-79 -18 -193 -73 -237 -115 -18 -16 -34 -30 -37 -30 -4
0 -6 22 -6 48 0 81 -13 87 -191 87 -141 0 -150 -1 -171 -23 l-23 -23 0 -934 0
-934 23 -23 c21 -22 30 -23 168 -23 l146 0 24 28 24 28 0 320 0 319 38 -37
c50 -51 128 -99 199 -125 81 -29 243 -36 338 -14 182 43 341 171 428 344 69
138 91 247 85 425 -4 126 -8 152 -35 230 -42 119 -84 187 -173 277 -126 129
-242 179 -425 186 -74 2 -131 -1 -175 -11z m142 -336 c73 -16 135 -49 186
-100 157 -158 148 -433 -19 -583 -82 -74 -128 -91 -244 -91 -95 0 -103 2 -163
34 -74 40 -125 94 -159 166 -110 241 19 527 258 574 63 12 81 12 141 0z"/>
<path d="M3268 5515 c-73 -27 -167 -107 -235 -200 l-22 -30 -1 88 c0 127 0
127 -190 127 -137 0 -152 -2 -170 -20 -20 -20 -20 -30 -18 -695 3 -632 4 -675
21 -692 15 -16 37 -18 167 -18 130 0 152 2 167 18 17 16 18 51 23 415 l5 397
28 60 c32 69 85 128 142 158 32 17 63 22 150 25 81 3 115 8 128 20 15 13 17
35 17 169 0 189 -3 193 -107 192 -38 0 -85 -7 -105 -14z"/>
<path d="M4071 5510 c-273 -73 -475 -287 -532 -563 -22 -108 -23 -184 -5 -287
50 -276 231 -488 491 -576 66 -22 103 -28 210 -31 163 -6 244 10 373 73 79 38
109 60 182 132 132 132 198 266 220 450 14 116 1 228 -39 342 -38 109 -84 182
-166 265 -81 83 -176 142 -290 181 -70 24 -98 28 -225 31 -120 2 -158 0 -219
-17z m354 -371 c137 -64 229 -233 211 -386 -11 -97 -43 -162 -115 -234 -87
-87 -151 -113 -266 -107 -100 6 -157 30 -230 99 -187 176 -148 499 74 617 100
54 226 58 326 11z"/>
<path d="M5800 5516 c-79 -22 -123 -48 -192 -117 l-68 -67 0 58 c0 103 -43
125 -229 113 -91 -5 -108 -9 -128 -29 l-23 -23 0 -655 c0 -479 3 -662 12 -681
16 -35 41 -40 194 -40 146 0 157 4 174 64 6 21 10 194 10 427 0 434 2 447 66
522 50 59 105 82 195 82 122 0 194 -44 241 -145 23 -49 23 -56 26 -482 3 -419
4 -432 24 -450 18 -16 38 -18 164 -18 136 0 145 1 166 23 l23 23 5 432 c6 476
4 466 70 541 50 57 101 78 185 79 114 1 181 -41 238 -147 21 -40 22 -52 27
-473 l5 -432 23 -23 c20 -21 34 -23 135 -26 151 -4 187 4 210 48 17 32 18 68
14 495 -3 392 -6 469 -20 518 -57 198 -200 335 -398 382 -134 31 -311 15 -418
-40 -58 -29 -133 -95 -162 -141 l-21 -35 -34 49 c-58 87 -146 149 -246 172
-59 13 -213 11 -268 -4z"/>
</g>
</svg>
