<svg width="18" height="18" viewBox="0 0 18 18" fill="none" xmlns="http://www.w3.org/2000/svg">
<path d="M8.99358 0C4.01499 0 0 3.47488 0 7.69343C0 10.4317 1.67024 12.8293 4.17559 14.1985L3.32762 17.6248C3.31164 17.6761 3.30918 17.7312 3.32052 17.784C3.33187 17.8368 3.35657 17.8851 3.39186 17.9236C3.44333 17.9727 3.50954 17.9998 3.57816 18C3.63505 17.9951 3.68903 17.9707 3.73233 17.9305L7.38116 15.2688C7.91977 15.3492 8.46271 15.3909 9.00642 15.3938C13.9786 15.3938 18 11.9189 18 7.69343C18 3.46793 13.9657 0 8.99358 0Z" fill="#392020"/>
</svg>
